<?xml version="1.0" encoding="utf-8"?>
<!-- Generator: Adobe Illustrator 17.0.0, SVG Export Plug-In . SVG Version: 6.00 Build 0)  -->
<!DOCTYPE svg PUBLIC "-//W3C//DTD SVG 1.1//EN" "http://www.w3.org/Graphics/SVG/1.1/DTD/svg11.dtd">
<svg version="1.1" id="Layer_1" xmlns="http://www.w3.org/2000/svg" xmlns:xlink="http://www.w3.org/1999/xlink" x="0px" y="0px"
	 width="400px" height="400px" viewBox="0 0 400 400" enable-background="new 0 0 400 400" xml:space="preserve">
<path fill-rule="evenodd" clip-rule="evenodd" fill="#fff" d="M194.17,4.703c13.364-0.205,27.526-0.031,38.46,2.905
	c2.892,0.776,5.389,0.494,8.224,1.32c5.073,1.479,10.43,2.98,15.481,4.225c-0.247,0.212-0.066,0.094-0.484,0.264
	c-7.82,2.728-15.643,5.457-23.463,8.186c-14.676,6.602-29.365,12.408-42.814,20.068c-3.332,1.898-6.734,3.169-9.917,5.281
	c-8.049,5.34-16.317,10.27-23.947,16.108c-12.011,9.189-23.161,19.472-33.38,30.631c-4.263,4.655-9.176,9.258-12.82,14.523
	c-5.629,8.134-11.761,15.883-17.174,24.293c-5.225,8.118-9.487,17.039-14.271,25.614c-2.361,4.231-3.948,8.865-5.805,13.467
	c-4.348,10.771-8.723,22.196-12.336,34.064c-1.067,3.503-1.354,6.716-2.419,10.298c-2.62,8.812-3.673,18.925-5.805,28.518
	c-1.022,4.601-0.755,9.516-1.693,13.995c-0.85,4.061-0.165,8.493-0.968,12.411c0,1.76,0,3.521,0,5.281
	c-0.684,3.495-0.706,15.003,0,18.484c0.331,1.634-0.024,3.973,0.242,5.281c0.161,3.344,0.323,6.69,0.484,10.034
	c0.707,3.397,0.421,7.24,1.209,10.826c2.043,9.287,2.48,18.991,5.08,27.726c1.8,6.049,3.118,12.401,5.321,18.22
	c1.283,3.388,3.201,6.986,4.112,10.562c-0.081,0-0.161,0-0.242,0c-1.424-2.047-3.653-3.476-5.321-5.281
	c-3.608-3.904-7.32-7.955-10.401-12.411c-1.229-1.778-3.125-3.224-4.354-5.017c-5.544-8.087-11.194-16.149-16.206-24.822
	c-8.243-14.261-14.563-30.717-19.835-48.059C5.913,271.13,4.844,259.8,2.354,248.166c-0.484-5.369-0.968-10.739-1.451-16.108
	c0-1.936,0-3.873,0-5.809c-0.903-4.673-0.655-15.1,0.242-19.54c0.161-3.168,0.323-6.338,0.484-9.506
	c1.608-7.689,1.811-15.919,3.628-22.973c0.713-2.769,0.652-5.242,1.451-7.922c2.386-7.996,4.14-16.195,7.015-23.765
	c15.01-39.526,38.233-73.011,68.212-96.118c13.908-10.719,29.127-19.597,45.958-27.198c6.99-3.157,14.584-5.183,22.012-7.658
	c9.343-3.113,19.606-3.329,29.752-5.809C184.494,5.407,189.333,5.055,194.17,4.703z"/>
<path fill-rule="evenodd" clip-rule="evenodd" fill="#fff" d="M297.455,31.637c3.403,0.966,8.448,5.376,11.369,7.394
	c6.823,4.714,13.02,9.625,19.351,14.787c3.02,2.462,5.483,5.986,8.466,8.45c7.839,6.474,15.409,16.153,21.286,24.822
	c0.743,1.096,1.925,2.055,2.661,3.169c4.147,6.276,8.287,12.688,12.094,19.276c6.6,11.422,11.502,24.344,16.448,37.496
	c3.237,8.607,4.864,18.135,7.257,27.462c0.855,3.332,0.674,6.32,1.451,9.77c1.142,5.067,1.065,11.234,2.177,16.636
	c0.081,2.552,0.161,5.105,0.242,7.658c0.597,3.057,0.828,10.307,0.242,13.203c0,2.728,0,5.458,0,8.186
	c-0.585,4.22-0.385,9.25-1.209,13.203c-1.15,5.515-0.693,10.618-1.935,15.844c-1.791,7.534-2.876,15.248-5.08,22.445
	c-5.953,19.448-13.314,36.937-22.495,52.812c-4.226,7.307-9.336,14.001-14.029,20.861c-1.296,1.895-3.299,3.409-4.596,5.281
	c-2.528,3.649-5.539,6.575-8.466,9.77c-6.664,7.273-13.512,13.97-21.286,20.068c-3.419,2.683-6.709,5.381-10.401,7.922
	c-0.905,0.623-1.44,1.468-2.661,1.848c0-0.088,0-0.176,0-0.264c1.081-1.789,0.862-4.598,1.451-6.866
	c1.6-6.154,2.259-12.758,3.87-19.276c2.13-8.617,2.634-18.358,4.596-27.462c1.031-4.784,0.501-9.92,1.451-14.523
	c1.275-6.174-0.039-13.443,1.209-19.54c0.242-8.537,0.484-17.077,0.726-25.614c-0.081,0-0.161,0-0.242,0
	c-1.718,2.806-4.6,5.022-6.773,7.394c-4.367,4.767-8.581,9.9-13.546,13.995c-1.579,1.303-2.77,3.445-4.354,4.753
	c-4.521,3.733-8.519,8.233-13.062,11.883c-16.831,13.521-32.794,25.196-54.424,33.8c-5.356,2.13-11.291,3.171-16.932,4.753
	c-3.144,0.528-6.289,1.056-9.434,1.584c-3.731,0.913-11.832-0.285-14.513-1.056c-2.8-0.806-5.027-0.98-7.498-2.112
	c-11.049-5.062-18.16-15.046-23.947-25.878c-9.584-17.939-8.089-59.217-2.177-80.274c1.347-4.796,2.282-9.251,3.87-13.467
	c3.765-9.997,6.747-19.334,11.611-27.99c18.805-33.471,44.926-56.879,80.064-72.616c9.616-4.307,20.319-5.617,31.445-8.45
	c4.595-0.44,9.192-0.88,13.788-1.32c0-14.698,0-29.4,0-44.098C296.165,68.783,296.81,50.208,297.455,31.637z"/>
</svg>
